<svg xmlns="http://www.w3.org/2000/svg" xmlns:xlink="http://www.w3.org/1999/xlink" width="0" height="0" style="position:absolute">
	
		<symbol id="chevron-down" viewBox="0 0 24 24">
			<title>chevron-down</title><path d="M18.7 8.3c-.4-.4-1-.4-1.4 0L12 13.6 6.7 8.3c-.4-.4-1-.4-1.4 0s-.4 1 0 1.4l6 6c.2.2.5.3.7.3s.5-.1.7-.3l6-6c.4-.4.4-1 0-1.4z"></path>
		</symbol>
	
		<symbol id="chevron-left" viewBox="0 0 24 24">
			<title>chevron-left</title><path d="M10.4 12l5.3-5.3c.4-.4.4-1 0-1.4s-1-.4-1.4 0l-6 6c-.4.4-.4 1 0 1.4l6 6c.2.2.5.3.7.3s.5-.1.7-.3c.4-.4.4-1 0-1.4L10.4 12z"></path>
		</symbol>
	
		<symbol id="chevron-right" viewBox="0 0 24 24">
			<title>chevron-right</title><path d="M15.7 11.3l-6-6c-.4-.4-1-.4-1.4 0s-.4 1 0 1.4l5.3 5.3-5.3 5.3c-.4.4-.4 1 0 1.4.2.2.4.3.7.3s.5-.1.7-.3l6-6c.4-.4.4-1 0-1.4z"></path>
		</symbol>
	
		<symbol id="chevron-up" viewBox="0 0 24 24">
			<title>chevron-up</title><path d="M18.7 14.3l-6-6c-.4-.4-1-.4-1.4 0l-6 6c-.4.4-.4 1 0 1.4s1 .4 1.4 0l5.3-5.3 5.3 5.3c.2.2.5.3.7.3s.5-.1.7-.3c.4-.4.4-1 0-1.4z"></path>
		</symbol>
	
		<symbol id="quotes-right" viewBox="0 0 32 32">
			<title>quotes-right</title><path d="M25 20a7 7 0 1 1 7-7l.031 1c0 7.732-6.268 14-14 14v-4a9.934 9.934 0 0 0 7.071-2.929c.364-.364.695-.75.995-1.157A7.081 7.081 0 0 1 25 20zM7 20a7 7 0 1 1 7-7l.031 1c0 7.732-6.268 14-14 14v-4a9.934 9.934 0 0 0 7.071-2.929c.364-.364.695-.75.995-1.157A7.081 7.081 0 0 1 7 20z"></path>
		</symbol>
	
</svg>
